Ground reaction force (.MOT) by Lee-Son Toolkit
nRows=60
nColumns=19

name S4_T_02_fixed_grf.mot
datacolumns 19
datarows 60
range 0 0.059
endheader
time	1_ground_force_vx	1_ground_force_vy	1_ground_force_vz	1_ground_force_px	1_ground_force_py	1_ground_force_pz	2_ground_force_vx	2_ground_force_vy	2_ground_force_vz	2_ground_force_px	2_ground_force_py	2_ground_force_pz	1_ground_torque_x	1_ground_torque_y	1_ground_torque_z	2_ground_torque_x	2_ground_torque_y	2_ground_torque_z
0	0	0	0	0	0	0	2.41481	-33.5933	7.51103	0.0910433	0	0.0918584	0	0	0	0	-1.16398	0
0.001	0	0	0	0	0	0	2.45902	-32.9027	7.38097	0.0922949	0	0.0975103	0	0	0	0	-1.16581	0
0.002	0	0	0	0	0	0	2.45856	-32.9014	7.46421	0.0905218	0	0.0955869	0	0	0	0	-1.21142	0
0.003	0	0	0	0	0	0	2.41483	-33.4209	7.51066	0.0914865	0	0.0958372	0	0	0	0	-1.21424	0
0.004	0	0	0	0	0	0	2.37051	-32.898	7.59605	0.0906507	0	0.0924517	0	0	0	0	-1.16558	0
0.005	0	0	0	0	0	0	2.59242	-33.4224	7.55475	0.0912765	0	0.0946119	0	0	0	0	-1.19921	0
0.006	0	0	0	0	0	0	2.50388	-32.5532	7.59755	0.0914421	0	0.0946331	0	0	0	0	-1.1503	0
0.007	0	0	0	0	0	0	2.45825	-33.4195	7.60097	0.0902958	0	0.0968958	0	0	0	0	-1.18582	0
0.008	0	0	0	0	0	0	2.50211	-33.7707	7.2931	0.0904652	0	0.0951385	0	0	0	0	-1.1943	0
0.009	0	0	0	0	0	0	2.50332	-33.0724	7.68389	0.0900009	0	0.0942213	0	0	0	0	-1.20577	0
0.01	0	0	0	0	0	0	2.37197	-33.7674	7.46964	0.0934932	0	0.091477	0	0	0	0	-1.13604	0
0.011	0	0	0	0	0	0	2.3245	-33.5908	7.59494	0.0882608	0	0.0928764	0	0	0	0	-1.23343	0
0.012	0	0	0	0	0	0	2.59433	-32.9047	7.46657	0.0944494	0	0.0962202	0	0	0	0	-1.19707	0
0.013	0	0	0	0	0	0	2.50311	-33.2464	7.64433	0.0907058	0	0.096752	0	0	0	0	-1.18298	0
0.014	0	0	0	0	0	0	2.37208	-32.5551	7.42082	0.0939548	0	0.0954751	0	0	0	0	-1.18191	0
0.015	0	0	0	0	0	0	2.68337	-32.7309	7.55709	0.0948571	0	0.0960258	0	0	0	0	-1.14025	0
0.016	0	0	0	0	0	0	2.50304	-32.7294	7.42603	0.0921313	0	0.100354	0	0	0	0	-1.17382	0
0.017	0	0	0	0	0	0	2.45795	-33.5909	7.68631	0.0886987	0	0.0922012	0	0	0	0	-1.17064	0
0.018	0	0	0	0	0	0	2.19367	-33.7612	7.73197	0.0914212	0	0.0922872	0	0	0	0	-1.15737	0
0.019	0	0	0	0	0	0	2.41421	-33.4203	7.466	0.0903546	0	0.092373	0	0	0	0	-1.17418	0
0.02	0	0	0	0	0	0	2.54761	-33.2496	7.42335	0.0912355	0	0.0940891	0	0	0	0	-1.1702	0
0.021	0	0	0	0	0	0	2.28393	-33.0711	7.60165	0.0943852	0	0.0932059	0	0	0	0	-1.10399	0
0.022	0	0	0	0	0	0	2.45874	-33.5927	7.59997	0.0904157	0	0.0934927	0	0	0	0	-1.16841	0
0.023	0	0	0	0	0	0	2.01567	-32.897	7.33674	0.0928612	0	0.0951949	0	0	0	0	-1.12704	0
0.024	0	0	0	0	0	0	2.50341	-33.0731	7.60108	0.0911955	0	0.0949505	0	0	0	0	-1.1345	0
0.025	0	0	0	0	0	0	2.59336	-32.9004	7.68993	0.0927296	0	0.0959412	0	0	0	0	-1.12598	0
0.026	0	0	0	0	0	0	2.37215	-33.2467	7.59674	0.0931602	0	0.095051	0	0	0	0	-1.22396	0
0.027	0	0	0	0	0	0	2.41679	-31.861	7.5101	0.0947247	0	0.0980307	0	0	0	0	-1.14245	0
0.028	0	0	0	0	0	0	2.5023	-33.2481	7.4682	0.0901332	0	0.0957913	0	0	0	0	-1.17385	0
0.029	0	0	0	0	0	0	2.32577	-33.0697	7.68581	0.090236	0	0.0942302	0	0	0	0	-1.16918	0
0.03	0	0	0	0	0	0	2.41553	-33.5931	7.6005	0.0921793	0	0.0946718	0	0	0	0	-1.18056	0
0.031	0	0	0	0	0	0	2.32539	-32.8969	7.64197	0.090117	0	0.0959621	0	0	0	0	-1.17767	0
0.032	0	0	0	0	0	0	2.41415	-33.5942	7.42293	0.0904707	0	0.0919623	0	0	0	0	-1.16729	0
0.033	0	0	0	0	0	0	2.32458	-33.2436	7.59923	0.0891964	0	0.0950282	0	0	0	0	-1.16829	0
0.034	0	0	0	0	0	0	2.41579	-33.4238	7.29075	0.0932269	0	0.0926172	0	0	0	0	-1.17893	0
0.035	0	0	0	0	0	0	2.4142	-33.596	7.33464	0.0910279	0	0.0938191	0	0	0	0	-1.20205	0
0.036	0	0	0	0	0	0	2.41405	-33.5913	7.60073	0.0899153	0	0.0917465	0	0	0	0	-1.1283	0
0.037	0	0	0	0	0	0	2.54706	-33.7645	7.78007	0.0898672	0	0.0951281	0	0	0	0	-1.13291	0
0.038	0	0	0	0	0	0	2.32544	-33.5908	7.59874	0.0900019	0	0.0929035	0	0	0	0	-1.17566	0
0.039	0	0	0	0	0	0	2.50156	-34.2845	7.68656	0.0874327	0	0.0903558	0	0	0	0	-1.18867	0
0.04	0	0	0	0	0	0	2.54619	-33.0752	7.46387	0.0887838	0	0.0944875	0	0	0	0	-1.21208	0
0.041	0	0	0	0	0	0	2.3719	-33.0725	7.59594	0.0924954	0	0.0925797	0	0	0	0	-1.18793	0
0.042	0	0	0	0	0	0	2.37079	-33.5914	7.64555	0.0916712	0	0.0946172	0	0	0	0	-1.15804	0
0.043	0	0	0	0	0	0	2.23511	-33.5927	7.33711	0.089537	0	0.0961424	0	0	0	0	-1.18251	0
0.044	0	0	0	0	0	0	2.36962	-33.5939	7.4233	0.0905173	0	0.0937087	0	0	0	0	-1.18444	0
0.045	0	0	0	0	0	0	2.28087	-33.0687	7.6866	0.0897137	0	0.0948197	0	0	0	0	-1.16109	0
0.046	0	0	0	0	0	0	2.59381	-32.7291	7.55731	0.0937986	0	0.0960183	0	0	0	0	-1.13048	0
0.047	0	0	0	0	0	0	2.50565	-32.7265	7.68812	0.0939061	0	0.0952508	0	0	0	0	-1.13406	0
0.048	0	0	0	0	0	0	2.63484	-33.4221	7.55538	0.0889213	0	0.096349	0	0	0	0	-1.20698	0
0.049	0	0	0	0	0	0	2.45869	-33.5938	7.51087	0.0904135	0	0.0924344	0	0	0	0	-1.17397	0
0.05	0	0	0	0	0	0	2.54889	-33.0756	7.50952	0.0922859	0	0.0926941	0	0	0	0	-1.16947	0
0.051	0	0	0	0	0	0	2.28278	-33.0706	7.60324	0.093227	0	0.0949746	0	0	0	0	-1.09819	0
0.052	0	0	0	0	0	0	2.36879	-32.9015	7.29053	0.0900692	0	0.0952198	0	0	0	0	-1.16717	0
0.053	0	0	0	0	0	0	2.54502	-33.9396	7.59963	0.087122	0	0.0942517	0	0	0	0	-1.20271	0
0.054	0	0	0	0	0	0	2.50319	-33.0752	7.50746	0.0905684	0	0.0956265	0	0	0	0	-1.23832	0
0.055	0	0	0	0	0	0	2.45973	-32.7282	7.5088	0.0921693	0	0.096642	0	0	0	0	-1.20681	0
0.056	0	0	0	0	0	0	2.63543	-33.2468	7.68562	0.0888052	0	0.0943216	0	0	0	0	-1.19161	0
0.057	0	0	0	0	0	0	2.41455	-33.5924	7.55815	0.0910602	0	0.0929783	0	0	0	0	-1.12637	0
0.058	0	0	0	0	0	0	2.63872	-32.9023	7.64388	0.0938306	0	0.0948104	0	0	0	0	-1.15034	0
0.059	0	0	0	0	0	0	2.50219	-33.5939	7.55087	0.0886138	0	0.0929332	0	0	0	0	-1.24244	0
